<?xml version="1.0" encoding="utf-8"?>
<!-- Generator: Adobe Illustrator 22.1.0, SVG Export Plug-In . SVG Version: 6.00 Build 0)  -->
<svg version="1.1" id="图层_1" xmlns="http://www.w3.org/2000/svg" xmlns:xlink="http://www.w3.org/1999/xlink" x="0px" y="0px"
	 viewBox="0 0 2679.5 2946.3" style="enable-background:new 0 0 2679.5 2946.3;" xml:space="preserve">
<style type="text/css">
	.st0{fill:#FBFBFD;}
	.st1{fill:#F0F0F7;}
	.st2{fill:#C3EACB;}
	.st3{fill:#90D19E;}
	.st4{fill:#4A995B;}
	.st5{opacity:0.72;}
	.st6{display:none;}
	.st7{display:inline;fill:url(#SVGID_1_);}
	.st8{display:inline;}
	.st9{fill:url(#SVGID_2_);}
	.st10{fill:url(#SVGID_3_);}
	.st11{fill:url(#SVGID_4_);}
	.st12{fill:url(#SVGID_5_);}
	.st13{fill:url(#SVGID_6_);}
	.st14{fill:url(#SVGID_7_);}
	.st15{fill:url(#SVGID_8_);}
	.st16{display:inline;fill:url(#SVGID_9_);}
	.st17{fill:url(#SVGID_10_);}
	.st18{fill:url(#SVGID_11_);}
	.st19{fill:url(#SVGID_12_);}
	.st20{fill:url(#SVGID_13_);}
	.st21{fill:url(#SVGID_14_);}
	.st22{fill:url(#SVGID_15_);}
	.st23{fill:url(#SVGID_16_);}
	.st24{fill:#44A559;}
	.st25{fill:url(#SVGID_17_);}
	.st26{fill:url(#SVGID_18_);}
	.st27{fill:#29803F;}
	.st28{fill:url(#SVGID_19_);}
	.st29{fill:url(#SVGID_20_);}
	.st30{fill:url(#SVGID_21_);}
	.st31{fill:#F29883;}
	.st32{fill:url(#SVGID_22_);}
	.st33{fill:#FFA488;}
	.st34{fill:url(#SVGID_23_);}
	.st35{fill:url(#SVGID_24_);}
	.st36{fill:url(#SVGID_25_);}
	.st37{fill:url(#SVGID_26_);}
	.st38{fill:url(#SVGID_27_);}
	.st39{fill:url(#SVGID_28_);}
	.st40{fill:url(#SVGID_29_);}
	.st41{fill:url(#SVGID_30_);}
	.st42{fill:url(#SVGID_31_);}
	.st43{fill:url(#SVGID_32_);}
	.st44{fill:url(#SVGID_33_);}
	.st45{fill:url(#SVGID_34_);}
	.st46{fill:url(#SVGID_35_);}
	.st47{fill:url(#SVGID_36_);}
	.st48{fill:url(#SVGID_37_);}
</style>
<g>
	<g>
		<rect y="-15" class="st0" width="2679.5" height="2961.3"/>
		<path class="st1" d="M2620.8,2034.7c116.1-254.2-98.5-370-271.6-354.5c-245.1,21.9-281.4,131.8-469.7-152.8
			c-138.9-210-455.4-275.1-633.4-56.7c-248.9,305.4-364.3-243.7-759-440.4c-378.5-188.6-880.1-67-1071.5,322.9
			c-204.2,415.9,132.4,1216.3,471,1595.7C93.5,3180.6,529.2,3203.5,775,3088c353-166,146.2-481.2,467-345.7
			c192,81.1,559.3,108,620.7-269.1C1924.2,2096.1,2453.6,2400.8,2620.8,2034.7z"/>
	</g>
</g>
<g>
	<polygon class="st2" points="1347.5,1398.2 1970.9,1391.9 1970.9,613.2 1347.5,653.7 	"/>
	<path class="st3" d="M1430.5,821.5c-4.2,0-8.2-1.7-11.2-4.9c-3.4-3.5-5.3-8.4-5.3-13.6V701.1c0-10.4,7.6-19.4,16.9-20l556.1-34.6
		c4.8-0.3,9.6,1.5,13,5.1c3.5,3.6,5.5,8.5,5.5,13.8v106.3c0,10.8-8.1,20-18.1,20.5l-556.1,29.2
		C1431,821.5,1430.8,821.5,1430.5,821.5z M1988,655.5c-0.2,0-0.4,0-0.6,0l-556.1,34.6c-5,0.3-9.1,5.2-9.1,11V803
		c0,2.8,1,5.3,2.7,7.1c1.6,1.6,3.8,2.5,5.9,2.4l556.1-29.2c5.6-0.3,10.1-5.5,10.1-11.5V665.4c0-2.8-1-5.4-2.8-7.3
		C1992.6,656.4,1990.4,655.5,1988,655.5z"/>
	<path class="st3" d="M1430.6,994.7c-4.3,0-8.3-1.7-11.4-5c-3.4-3.5-5.3-8.4-5.3-13.7V874.1c0-10.5,7.6-19.3,17-19.8l556.1-27.5
		c4.8-0.3,9.5,1.6,13,5.2c3.5,3.6,5.4,8.5,5.4,13.9v106.3c0,10.8-8.1,19.9-18.1,20.3l-556.1,22.2
		C1431.1,994.7,1430.8,994.7,1430.6,994.7z M1987.8,835.8c-0.2,0-0.3,0-0.5,0l-556.1,27.5c-5,0.2-9,5.1-9,10.8V976
		c0,2.8,1,5.4,2.7,7.2c1.6,1.7,3.6,2.4,5.9,2.5l556.1-22.2c5.6-0.2,10.1-5.3,10.1-11.4V845.9c0-2.9-1-5.5-2.9-7.4
		C1992.5,836.7,1990.3,835.8,1987.8,835.8z"/>
	<path class="st3" d="M1430.8,1167.9c-4.3,0-8.4-1.8-11.5-5.1c-3.4-3.6-5.3-8.4-5.3-13.7v-101.9c0-10.5,7.6-19.3,17-19.6l556.1-20.5
		c4.9,0,9.5,1.7,13,5.4c3.5,3.6,5.4,8.6,5.4,13.9v106.3c0,10.8-8.1,19.9-18.2,20.2l-556.1,15.2
		C1431.1,1167.9,1430.9,1167.9,1430.8,1167.9z M1987.7,1016c-0.1,0-0.2,0-0.3,0l-556.1,20.5c-4.9,0.2-9,5-9,10.6V1149
		c0,2.8,1,5.4,2.8,7.3c1.6,1.7,4,2.5,6,2.5l556.1-15.2c5.5-0.1,10-5.2,10-11.2v-106.3c0-2.9-1-5.5-2.9-7.4
		C1992.5,1017,1990.1,1016,1987.7,1016z"/>
	<path class="st3" d="M1430.9,1341.2c-4.4,0-8.5-1.8-11.7-5.2c-3.4-3.6-5.3-8.5-5.3-13.7v-101.9c0-10.5,7.7-19.2,17.1-19.5
		l556.1-13.5c4.9,0.1,9.5,1.8,13,5.5s5.4,8.6,5.4,13.9V1313c0,10.9-8.2,19.8-18.2,20l-556.1,8.2
		C1431.1,1341.2,1431,1341.2,1430.9,1341.2z M1431.1,1332.2l0.1,4.5L1431.1,1332.2l556.1-8.2c5.5-0.1,10-5,10-11v-106.3
		c0-2.9-1-5.5-2.9-7.5c-1.8-2-4.7-2.9-6.9-2.9l-556.1,13.5c-4.9,0.1-8.9,4.8-8.9,10.5v101.9c0,2.8,1,5.4,2.8,7.3
		C1426.7,1331.3,1428.4,1332.2,1431.1,1332.2z"/>
	<polygon class="st4" points="1697.4,1081.3 1937.9,1073.4 1937.9,1052.6 1697.4,1060.8 	"/>
	<polygon class="st4" points="1775.1,1115.3 1937.9,1110.4 1937.9,1089.6 1775.1,1094.7 	"/>
	<polygon class="st4" points="1716.5,1117.1 1756.5,1115.8 1756.5,1095.3 1716.5,1096.6 	"/>
	<polygon class="st4" points="1697.4,732.3 1937.9,718.4 1937.9,697.6 1697.4,711.8 	"/>
	<polygon class="st4" points="1793.8,763.4 1937.9,755.4 1937.9,734.6 1793.8,742.8 	"/>
	<polygon class="st4" points="1626.1,772.6 1775.1,764.4 1775.1,743.8 1626.1,752.2 	"/>
	<polygon class="st4" points="1840.9,1255 1937.9,1253 1937.9,1232.2 1840.9,1234.3 	"/>
	<polygon class="st4" points="1727.5,1257.3 1823,1255.3 1823,1234.7 1727.5,1236.8 	"/>
	<polygon class="st4" points="1775.1,1292.9 1937.9,1290 1937.9,1269.2 1775.1,1272.3 	"/>
	<polygon class="st4" points="1600.1,1295.9 1756.5,1293.2 1756.5,1272.7 1600.1,1275.6 	"/>
</g>
<g class="st5">
	<path class="st1" d="M2248.9,728c-50.8,0-91.9,41.2-91.9,91.9c0,50.8,41.2,91.9,91.9,91.9c50.8,0,91.9-41.2,91.9-91.9
		C2340.9,769.2,2299.7,728,2248.9,728z"/>
	<path class="st1" d="M2385.3,609.2c-19.3,0-34.9,15.6-34.9,34.9c0,19.3,15.6,34.9,34.9,34.9c19.3,0,34.9-15.6,34.9-34.9
		C2420.1,624.9,2404.5,609.2,2385.3,609.2z"/>
	<path class="st1" d="M2214.1,511c-14,0-25.4,11.4-25.4,25.4s11.4,25.4,25.4,25.4s25.4-11.4,25.4-25.4
		C2239.4,522.3,2228.1,511,2214.1,511z"/>
</g>
<g class="st6">
	
		<linearGradient id="SVGID_1_" gradientUnits="userSpaceOnUse" x1="351.4649" y1="1856.5027" x2="636.3206" y2="1856.5027" gradientTransform="matrix(0.9723 -0.2337 -0.2337 -0.9723 97.8467 3296.3059)">
		<stop  offset="0" style="stop-color:#000061"/>
		<stop  offset="1" style="stop-color:#55D1FF"/>
	</linearGradient>
	<path class="st7" d="M230,1229.2c34.3,4.1,36.5,31.3,26.1,46.8c-14.8,21.9-28.9,18.8-6.4,53.6c16.6,25.6,8,59.5-25.4,63.3
		c-46.7,5.4-15.1,40.1-15,62.7c0.2,46.8-33.1,43.3-88.7,41.6c-57.1-1.8-88.8-27.7-108.7-73.4c-14.7-33.8-18-66,7.3-82.4
		c36.3-23.6,61.3,14.8,62.2-23.7c0.5-23,16-59.4,61.3-42.8C188.1,1291.5,180.5,1223.3,230,1229.2z"/>
	<g class="st8">
		
			<linearGradient id="SVGID_2_" gradientUnits="userSpaceOnUse" x1="2434.7102" y1="1732.5026" x2="2578.5212" y2="1994.7006" gradientTransform="matrix(0.9571 0.2897 0.2897 -0.9571 -2811.9246 2452.8328)">
			<stop  offset="0" style="stop-color:#000061"/>
			<stop  offset="1" style="stop-color:#55D1FF"/>
		</linearGradient>
		<path class="st9" d="M39.3,1516.7l4.4-11.4l8.8-22.8c3.2-7.5,6.8-14.8,10.1-22.3l5.1-11.1c1.8-3.7,3.8-7.2,5.7-10.8
			c3.9-7.2,7.7-14.4,11.7-21.5c16.7-28,35.9-54.6,57.5-78.9c21.8-24.2,45.7-46.8,73.1-64.6l0.5,0.8c-3.2,2.5-6.4,5-9.4,7.7
			c-3.1,2.6-6.2,5.3-9.2,8c-3.1,2.7-6,5.5-8.8,8.3c-2.9,2.9-5.9,5.5-8.6,8.6c-5.6,5.8-11.3,11.5-16.5,17.6c-2.7,3-5.4,6-8.1,9
			l-7.7,9.3l-7.7,9.3l-7.3,9.6l-7.3,9.6c-2.4,3.2-4.5,6.6-6.8,9.9c-2.2,3.3-4.6,6.6-6.8,9.9l-3.4,4.9c-1.1,1.7-2.1,3.4-3.2,5.1
			l-12.6,20.5c-4,6.9-7.8,14-11.7,21c-1.9,3.5-4,7-5.7,10.6s-3.4,7.3-5.2,10.9c-3.5,7.2-7.2,14.4-10.5,21.7
			c-3,7.5-6.2,14.8-9.4,22.2l-4.8,11.1"/>
		
			<linearGradient id="SVGID_3_" gradientUnits="userSpaceOnUse" x1="2537.3564" y1="1874.8264" x2="2559.3213" y2="1914.8728" gradientTransform="matrix(0.9571 0.2897 0.2897 -0.9571 -2811.9246 2452.8328)">
			<stop  offset="0" style="stop-color:#000061"/>
			<stop  offset="1" style="stop-color:#55D1FF"/>
		</linearGradient>
		<path class="st10" d="M143,1373.1c5.6-2.1,11.2-3,16.9-3.4c2.8-0.3,5.6-0.2,8.5-0.2c2.8,0.1,5.6,0.4,8.4,0.6
			c5.6,0.8,11.2,1.8,16.6,3.7c5.4,1.8,10.7,4.3,15.4,8l-0.2,0.6c-10.6-3.3-21.5-5.1-32.5-6.3c-11-1.3-22-2.1-33.1-2.3V1373.1z"/>
		
			<linearGradient id="SVGID_4_" gradientUnits="userSpaceOnUse" x1="2552.4502" y1="1935.6122" x2="2566.325" y2="1971.9017" gradientTransform="matrix(0.9571 0.2897 0.2897 -0.9571 -2811.9246 2452.8328)">
			<stop  offset="0" style="stop-color:#000061"/>
			<stop  offset="1" style="stop-color:#55D1FF"/>
		</linearGradient>
		<path class="st11" d="M175.9,1324.4c4.3-2.7,8.9-4.3,13.5-5.4c2.3-0.6,4.6-0.9,7-1.3c2.3-0.3,4.7-0.4,7.1-0.5
			c4.7,0,9.5,0.3,14.2,1.3s9.4,2.6,13.6,5.5l-0.1,0.6c-9.1-1.5-18.3-1.7-27.5-1.4c-9.2,0.1-18.4,0.7-27.6,1.8L175.9,1324.4z"/>
		
			<linearGradient id="SVGID_5_" gradientUnits="userSpaceOnUse" x1="2473.6626" y1="1897.2611" x2="2473.7656" y2="1931.6208" gradientTransform="matrix(0.9571 0.2897 0.2897 -0.9571 -2811.9246 2452.8328)">
			<stop  offset="0" style="stop-color:#000061"/>
			<stop  offset="1" style="stop-color:#55D1FF"/>
		</linearGradient>
		<path class="st12" d="M111.7,1355.5c-1-3.4-1.5-6.5-1.7-9.4c-0.3-2.9-0.5-5.7-0.6-8.4c0.1-1.4-0.1-2.7-0.1-4l-0.1-2
			c-0.1-0.6-0.1-1.3-0.1-1.9c-0.3-2.6-0.6-5.2-1.6-8.6l0.3-0.4c2.5,1.9,4.3,4.6,5.4,7.5s1.6,6,1.7,9.1c0.2,6.2-0.8,12.4-2.6,18.2
			L111.7,1355.5z"/>
		
			<linearGradient id="SVGID_6_" gradientUnits="userSpaceOnUse" x1="2520.5784" y1="1805.2107" x2="2549.6956" y2="1858.2975" gradientTransform="matrix(0.9571 0.2897 0.2897 -0.9571 -2811.9246 2452.8328)">
			<stop  offset="0" style="stop-color:#000061"/>
			<stop  offset="1" style="stop-color:#55D1FF"/>
		</linearGradient>
		<path class="st13" d="M101.4,1428.2c7.4-2.8,14.9-3.9,22.4-4.5c3.8-0.4,7.5-0.3,11.2-0.3c3.7,0.1,7.5,0.5,11.2,0.8
			c7.4,1,14.8,2.4,22,4.8s14.2,5.6,20.4,10.6l-0.2,0.8c-14-4.4-28.5-6.7-43.1-8.3c-14.5-1.8-29.2-2.8-43.9-3L101.4,1428.2z"/>
		
			<linearGradient id="SVGID_7_" gradientUnits="userSpaceOnUse" x1="2438.0071" y1="1833.5494" x2="2438.1699" y2="1887.832" gradientTransform="matrix(0.9571 0.2897 0.2897 -0.9571 -2811.9246 2452.8328)">
			<stop  offset="0" style="stop-color:#000061"/>
			<stop  offset="1" style="stop-color:#55D1FF"/>
		</linearGradient>
		<path class="st14" d="M64,1407.6c-2.6-7.5-2.7-16.1-3-23.9c-0.3-8-1.2-15.8-3.4-23.5c-0.6-2-1.2-4-1.9-6c-0.4-1.1-0.6-2.9,0.6-1.7
			c0.7,0.7,1.2,1.8,1.7,2.6c1,1.6,2,3.2,2.8,4.8c1.8,3.6,3.4,7.2,4.8,11c4.2,11.9,2.8,25-0.9,36.9L64,1407.6z"/>
		
			<linearGradient id="SVGID_8_" gradientUnits="userSpaceOnUse" x1="2503.1255" y1="1955.4282" x2="2508.96" y2="1981.5754" gradientTransform="matrix(0.9571 0.2897 0.2897 -0.9571 -2811.9246 2452.8328)">
			<stop  offset="0" style="stop-color:#000061"/>
			<stop  offset="1" style="stop-color:#55D1FF"/>
		</linearGradient>
		<path class="st15" d="M154.7,1308.8c-0.2-2.7,0-5.1,0.4-7.4c0.3-2.3,0.8-4.4,1.1-6.5c0.5-2.1,0.9-4,1.3-6c0.3-2,0.6-3.9,0.4-6.7
			l0.3-0.3c1.5,1.9,2.3,4.3,2.5,6.7c0.3,2.4,0,4.8-0.5,7.1c-1.1,4.6-2.9,9-5.2,13.2L154.7,1308.8z"/>
	</g>
</g>
<g class="st6">
	
		<linearGradient id="SVGID_9_" gradientUnits="userSpaceOnUse" x1="3137.1226" y1="1857.2649" x2="2895.8887" y2="2494.8972" gradientTransform="matrix(-0.9969 7.874078e-02 -7.874078e-02 -0.9969 3197.6484 3101.6636)">
		<stop  offset="0" style="stop-color:#2C27CE"/>
		<stop  offset="0.6488" style="stop-color:#EF1D68"/>
		<stop  offset="1" style="stop-color:#EFBA92"/>
	</linearGradient>
	<path class="st16" d="M38.9,1021.9c46.8-12.1,63.5,22.2,57.8,47.6c-8.1,36-28,39.2,18.9,73c34.6,24.9,40.7,73.3-0.9,95.4
		c-58.1,30.8,0.8,59.8,12.4,89.3c24.1,60.8-21,73.2-94.3,99.2c-75.2,26.7-129.7,9.2-178.8-40.3c-36.3-36.5-57-76.7-32.4-110.9
		c35.3-49.1,87.3-12,68.9-62.4c-11-30.2-9.4-85.4,58-86.9C16.1,1124.2-28.5,1039.3,38.9,1021.9z"/>
	<g class="st8">
		
			<linearGradient id="SVGID_10_" gradientUnits="userSpaceOnUse" x1="2678.2356" y1="1874.5306" x2="2879.1523" y2="2240.8445" gradientTransform="matrix(0.9969 -7.874078e-02 -7.874078e-02 -0.9969 -2618.5005 3560.469)">
			<stop  offset="0" style="stop-color:#2C27CE"/>
			<stop  offset="0.6488" style="stop-color:#EF1D68"/>
			<stop  offset="1" style="stop-color:#EFBA92"/>
		</linearGradient>
		<path class="st17" d="M-63,1493.1V1476l-0.2-34.2c0.3-11.4,1.3-22.7,1.9-34.1l1-17.1c0.5-5.7,1.3-11.3,2-17
			c1.4-11.3,2.7-22.6,4.3-33.9c7.5-45,18.9-89.3,34.7-132c16-42.6,35.6-84.2,62.3-121.2l1,0.8c-2.9,4.8-5.7,9.8-8.3,14.9
			c-2.8,4.9-5.3,10-7.9,15.1c-2.6,5-5,10.1-7.3,15.3c-2.3,5.2-4.8,10.2-6.8,15.5c-4.3,10.4-8.9,20.7-12.6,31.3
			c-1.9,5.3-4,10.5-6,15.8l-5.3,16l-5.2,16l-4.6,16.2l-4.6,16.2c-1.6,5.4-2.5,10.9-3.9,16.4c-1.2,5.5-2.6,10.9-3.9,16.3l-2,8.2
			c-0.6,2.7-1,5.5-1.5,8.3l-6,33.1c-1.7,11.1-3,22.2-4.5,33.3c-0.7,5.6-1.6,11.1-2.1,16.7c-0.4,5.6-0.7,11.2-1.2,16.8
			c-0.9,11.2-2,22.4-2.7,33.6c-0.2,11.2-0.5,22.5-0.9,33.7l-0.6,16.9"/>
		
			<linearGradient id="SVGID_11_" gradientUnits="userSpaceOnUse" x1="2821.5837" y1="2073.4011" x2="2852.2712" y2="2129.3508" gradientTransform="matrix(0.9969 -7.874078e-02 -7.874078e-02 -0.9969 -2618.5005 3560.4692)">
			<stop  offset="0" style="stop-color:#2C27CE"/>
			<stop  offset="0.6488" style="stop-color:#EF1D68"/>
			<stop  offset="1" style="stop-color:#EFBA92"/>
		</linearGradient>
		<path class="st18" d="M-1,1253.4c6.2-5.6,13.1-9.6,20.2-13c3.5-1.8,7.2-3.1,10.9-4.6c3.7-1.3,7.5-2.4,11.3-3.6
			c7.7-1.9,15.5-3.3,23.5-3.7c8-0.4,16.2,0.1,24.1,2.5v0.8c-15.4,1.1-30.6,4.4-45.5,8.4c-15,3.9-29.8,8.5-44.2,13.9L-1,1253.4z"/>
		
			<linearGradient id="SVGID_12_" gradientUnits="userSpaceOnUse" x1="2842.5862" y1="2158.3674" x2="2861.9692" y2="2209.0642" gradientTransform="matrix(0.9969 -7.874078e-02 -7.874078e-02 -0.9969 -2618.5005 3560.469)">
			<stop  offset="0" style="stop-color:#2C27CE"/>
			<stop  offset="0.6488" style="stop-color:#EF1D68"/>
			<stop  offset="1" style="stop-color:#EFBA92"/>
		</linearGradient>
		<path class="st19" d="M16.9,1173.3c4.2-5.7,9.4-10.1,14.8-13.8c2.7-2,5.6-3.5,8.4-5.2c2.9-1.5,5.9-2.9,8.9-4.3
			c6.2-2.4,12.5-4.5,19.1-5.5s13.5-1.4,20.5,0.2l0.2,0.8c-12.6,2.7-24.7,7.1-36.6,12.1c-11.9,4.9-23.6,10.3-35,16.4L16.9,1173.3z"/>
		
			<linearGradient id="SVGID_13_" gradientUnits="userSpaceOnUse" x1="2732.4309" y1="2104.7676" x2="2732.5747" y2="2152.772" gradientTransform="matrix(0.9969 -7.874078e-02 -7.874078e-02 -0.9969 -2618.5005 3560.4692)">
			<stop  offset="0" style="stop-color:#2C27CE"/>
			<stop  offset="0.6488" style="stop-color:#EF1D68"/>
			<stop  offset="1" style="stop-color:#EFBA92"/>
		</linearGradient>
		<path class="st20" d="M-50.7,1246.3c-3.1-3.9-5.2-7.7-7.1-11.4c-1.8-3.7-3.5-7.2-5-10.7c-0.6-1.8-1.5-3.4-2.2-5.1l-1.1-2.5
			c-0.4-0.8-0.8-1.6-1.2-2.4c-1.7-3.2-3.4-6.4-6.5-10.4l0.2-0.7c4.2,1.2,7.9,3.8,10.8,7.1c3,3.2,5.1,7.1,6.9,11
			c3.3,8,5.3,16.5,5.8,25.1H-50.7z"/>
		
			<linearGradient id="SVGID_14_" gradientUnits="userSpaceOnUse" x1="2798.1606" y1="1976.1298" x2="2838.8379" y2="2050.2935" gradientTransform="matrix(0.9969 -7.874078e-02 -7.874078e-02 -0.9969 -2618.5005 3560.469)">
			<stop  offset="0" style="stop-color:#2C27CE"/>
			<stop  offset="0.6488" style="stop-color:#EF1D68"/>
			<stop  offset="1" style="stop-color:#EFBA92"/>
		</linearGradient>
		<path class="st21" d="M-27.2,1346.3c8.2-7.4,17.4-12.7,26.8-17.2c4.7-2.4,9.6-4.1,14.5-6.1c4.9-1.8,9.9-3.2,15-4.7
			c10.2-2.5,20.5-4.4,31.1-4.9s21.4,0.1,31.9,3.4l0.1,1.1c-20.4,1.4-40.5,5.8-60.3,11.1c-19.8,5.1-39.4,11.2-58.6,18.4L-27.2,1346.3
			z"/>
		
			<linearGradient id="SVGID_15_" gradientUnits="userSpaceOnUse" x1="2682.739" y1="2015.7234" x2="2682.9663" y2="2091.5637" gradientTransform="matrix(0.9969 -7.874078e-02 -7.874078e-02 -0.9969 -2618.5005 3560.469)">
			<stop  offset="0" style="stop-color:#2C27CE"/>
			<stop  offset="0.6488" style="stop-color:#EF1D68"/>
			<stop  offset="1" style="stop-color:#EFBA92"/>
		</linearGradient>
		<path class="st22" d="M-86.3,1338.5c-7.2-8.4-11.7-19.5-16.1-29.6c-4.4-10.2-9.7-19.9-16.4-28.9c-1.7-2.3-3.6-4.6-5.5-6.8
			c-1-1.2-2.2-3.5,0-2.5c1.3,0.6,2.5,1.8,3.5,2.6c2.1,1.6,4.2,3.1,6.1,4.9c4.1,3.8,8.1,7.6,11.8,11.8c11.5,13.4,16.4,31.1,17.5,48.4
			L-86.3,1338.5z"/>
		
			<linearGradient id="SVGID_16_" gradientUnits="userSpaceOnUse" x1="2773.7998" y1="2186.0015" x2="2781.9514" y2="2222.533" gradientTransform="matrix(0.9969 -7.874078e-02 -7.874078e-02 -0.9969 -2618.5005 3560.469)">
			<stop  offset="0" style="stop-color:#2C27CE"/>
			<stop  offset="0.6488" style="stop-color:#EF1D68"/>
			<stop  offset="1" style="stop-color:#EFBA92"/>
		</linearGradient>
		<path class="st23" d="M-18.6,1163.8c-1.6-3.5-2.5-6.7-3.3-9.8c-0.8-3.1-1.2-6.1-1.8-9c-0.4-2.9-0.9-5.7-1.4-8.5
			c-0.6-2.8-1.2-5.5-2.8-8.9l0.3-0.5c2.9,1.7,5.1,4.4,6.6,7.4c1.6,3,2.4,6.2,3,9.5c1,6.6,0.8,13.3-0.1,19.8H-18.6z"/>
	</g>
</g>
<g>
	<path class="st24" d="M1067.6,1517.6l-194.1,112.1c-14.2,8.2-39.1,7.1-55.4-2.3L632,1519.9c-16.3-9.4-18.1-23.8-4-32l194-112.1
		c14.2-8.2,39.1-7.1,55.4,2.3l186.1,107.5C1080,1495,1081.8,1509.4,1067.6,1517.6z"/>
	<g>
		
			<linearGradient id="SVGID_17_" gradientUnits="userSpaceOnUse" x1="1060.0468" y1="1398.5685" x2="715.6464" y2="795.868" gradientTransform="matrix(1 0 0 -1 0 2943.8899)">
			<stop  offset="0" style="stop-color:#73C052"/>
			<stop  offset="2.737594e-02" style="stop-color:#70BE51"/>
			<stop  offset="0.4604" style="stop-color:#45A048"/>
			<stop  offset="0.7989" style="stop-color:#2B8E42"/>
			<stop  offset="0.9993" style="stop-color:#218740"/>
		</linearGradient>
		<path class="st25" d="M1076.9,1791.2v-284.9l0,0l0,0c-0.9,4.3-3.9,8.2-9.3,11.3l-194.1,112.1c-6.8,3.9-16.1,5.7-25.7,5.4v290
			c9.6,0.2,18.9-1.5,25.7-5.4l194.1-112.1C1075,1803.2,1078,1797.3,1076.9,1791.2z"/>
		
			<linearGradient id="SVGID_18_" gradientUnits="userSpaceOnUse" x1="733.1252" y1="932.0437" x2="733.1252" y2="1476.1289" gradientTransform="matrix(1 0 0 -1 0 2943.8899)">
			<stop  offset="0" style="stop-color:#FFE0AD"/>
			<stop  offset="0.4333" style="stop-color:#FFC291"/>
			<stop  offset="0.6309" style="stop-color:#FFB188"/>
			<stop  offset="0.9996" style="stop-color:#FF8871"/>
		</linearGradient>
		<path class="st26" d="M818.1,1627.3L632,1519.8c-7.8-4.5-12.2-10.1-13.3-15.7V1789c-1.4,7,3.1,14.8,13.3,20.7l186.1,107.5
			c8.5,4.9,19.3,7.5,29.7,7.7v-290C837.3,1634.8,826.5,1632.2,818.1,1627.3z"/>
		<path class="st27" d="M818.1,1627.3L632,1519.8c-7.8-4.5-12.2-10.1-13.3-15.7V1789c-1.4,7,3.1,14.8,13.3,20.7l186.1,107.5
			c8.5,4.9,19.3,7.5,29.7,7.7v-290C837.3,1634.8,826.5,1632.2,818.1,1627.3z"/>
	</g>
</g>
<g>
	
		<linearGradient id="SVGID_19_" gradientUnits="userSpaceOnUse" x1="2026.2206" y1="1181.2789" x2="3064.9353" y2="2006.1404" gradientTransform="matrix(-1 0 0 -1 3867.2812 2943.8899)">
		<stop  offset="0" style="stop-color:#3F24AC"/>
		<stop  offset="1" style="stop-color:#5D0FF6"/>
	</linearGradient>
	<path class="st28" d="M875.3,846.6c30.5-25.8,114.6-55,144.7,63c30.1,118,225.9,181.5,177.6,309.5s-284.5,124.4-327.8-20.7
		C826.6,1053.4,781.1,926.3,875.3,846.6z"/>
	
		<linearGradient id="SVGID_20_" gradientUnits="userSpaceOnUse" x1="2457.9009" y1="908.2045" x2="2675.5779" y2="1088.9659" gradientTransform="matrix(0.9023 -0.431 -0.431 -0.9023 -1386.8053 4139.6279)">
		<stop  offset="0" style="stop-color:#F70F47"/>
		<stop  offset="1" style="stop-color:#9E005D"/>
	</linearGradient>
	<path class="st29" d="M1011.4,1221.7c-8.3-17.5-22.9-72.5-44.8-144.7c-3.9-12.8-22.5-35.7-43-44.3c-12.7-5.3-31.4,5.4-25.4,29.7
		c3.4,13.7,7.5,32.8,24.1,77c27.3,72.4,45.3,100.6,54.8,112.3C988.5,1265.6,1023.4,1247.2,1011.4,1221.7z"/>
	
		<linearGradient id="SVGID_21_" gradientUnits="userSpaceOnUse" x1="2646.5359" y1="1228.7312" x2="2864.2117" y2="1409.4915" gradientTransform="matrix(0.9994 3.410000e-02 3.410000e-02 -0.9994 -2050.1089 2730.1401)">
		<stop  offset="0" style="stop-color:#F70F47"/>
		<stop  offset="1" style="stop-color:#9E005D"/>
	</linearGradient>
	<path class="st30" d="M1137.2,1296.6c-15.1-5.8-112.1-71.4-136.9-81c-29.4-11.4-40.2,25.7-18.2,39.4c33.7,21.1,46.6,28.2,97.3,44.3
		c35.2,11.2,40.4,24.1,51.4,20.4C1139.7,1316.8,1147.2,1300.4,1137.2,1296.6z"/>
	<path class="st31" d="M865.3,950.9c-0.6,2.1-12.6,46.4-19.9,80.8c-3.5,16.9,5.6,35.3,17.7,38c0.2,0,0.4,0.1,0.5,0.1
		c11.9,2.3,28.9-10,31-26.8c3.9-30.4,11.2-60.9,11.4-61.4L865.3,950.9z"/>
	
		<linearGradient id="SVGID_22_" gradientUnits="userSpaceOnUse" x1="2982.9529" y1="1832.9847" x2="3045.0071" y2="1489.2998" gradientTransform="matrix(-1 0 0 -1 3867.2812 2943.8899)">
		<stop  offset="0" style="stop-color:#F70F47"/>
		<stop  offset="1" style="stop-color:#9E004A"/>
	</linearGradient>
	<path class="st32" d="M793,1138.7c4.6,32.6,4.2,65.8,3.4,98.6c-0.6,24.1-6.3,48.3-13.9,71.1c-4.7,13.8-10.2,27.4-16.1,40.7
		c-2.2,5-20.8,45.7-22.2,50.2c0,0,184,35.3,194.7,37.4c5.5-38.5-15-166.7,29.3-238.7c30.7-49.8,4-56.7-5.8-104.9
		c-2.4-11.8-3.7-24.6-9.3-35.4c-5.4-10.5-15.7-19.1-26.3-24c-5.6-2.6-11.6-4.4-17.6-6c-32.4-9-108.2-33.4-124.5,12.1
		c-4.4,12.4-5,25.6-3.4,38.6c1.7,14.5,5.7,28.6,8.6,43C791.2,1127,792.2,1132.9,793,1138.7z"/>
	<path class="st33" d="M1112.6,1296.7c6.6-1.8,27.2-3.5,32.9-2.8c13.2,1.8,19.5,10.9,17.7,14.3c-2.8,5-13.7,16-22.4,15.4
		c-7.3-0.5-15.2-4.7-19.4-9.8C1117.1,1308.8,1101.9,1299.7,1112.6,1296.7z"/>
	<path class="st33" d="M909.7,1326.5c26.6,13.3,42.7,16.3,51,28s-17.8,14.9-27.7,11.6s-45.9-13.1-50.8-24.3
		C877.3,1330.6,890,1316.7,909.7,1326.5z"/>
	
		<linearGradient id="SVGID_23_" gradientUnits="userSpaceOnUse" x1="3326.6641" y1="1871.399" x2="3205.8557" y2="1570.2533" gradientTransform="matrix(-0.9821 -0.1886 0.1886 -0.9821 3672.1509 3477.1055)">
		<stop  offset="0" style="stop-color:#F70F47"/>
		<stop  offset="1" style="stop-color:#9E005D"/>
	</linearGradient>
	<path class="st34" d="M781.3,1233c3.7-19,24.6-71.9,49.9-143.1c4.5-12.6,3.1-42.1-8.3-61.1c-7.1-11.8-28.4-14.3-38.1,8.8
		c-5.4,13-13.4,30.9-26.2,76.3c-21,74.5-23.3,107.8-22.5,122.9C736.8,1254.6,775.9,1260.6,781.3,1233z"/>
	
		<linearGradient id="SVGID_24_" gradientUnits="userSpaceOnUse" x1="891.8598" y1="1602.412" x2="745.6567" y2="1720.1101" gradientTransform="matrix(1 0 0 -1 0 2943.8899)">
		<stop  offset="0" style="stop-color:#F70F47"/>
		<stop  offset="1" style="stop-color:#9E005D"/>
	</linearGradient>
	<path class="st35" d="M892.5,1317.4c-12-10.9-100.9-89.2-124.3-102.1c-27.6-15.3-43.4,20-23.4,36.6c30.5,25.4,42.3,34.2,90.4,57
		c33.4,15.8,39.9,32.1,48.8,30C893.2,1336.8,899.8,1324.1,892.5,1317.4z"/>
	<path class="st33" d="M864.9,909.2c-11.9,37.5-14.3,45.9-4.9,67.4c9.4,21.5,28.9,37.9,45.9,45.2c18.4,7.9,40.4-5.6,51.1-19
		c11.1-13.9,32-48.6,43.8-90.2c6-21.1-8.2-55.9-33.6-66.8C941.9,834.8,894,817.6,864.9,909.2z"/>
	
		<linearGradient id="SVGID_25_" gradientUnits="userSpaceOnUse" x1="3265.3396" y1="758.944" x2="3284.3333" y2="992.8692" gradientTransform="matrix(0.9982 5.950000e-02 5.950000e-02 -0.9982 -2096.5884 2718.0327)">
		<stop  offset="0" style="stop-color:#F70F47"/>
		<stop  offset="1" style="stop-color:#FFB41D"/>
	</linearGradient>
	<path class="st36" d="M1223,1950c2,4.5,12.2,15.3,26.8,22.9c14.6,7.6,46.1,12.6,28.1,17.5c-18,4.8-38.3,0-48.6-2.2
		c-10.3-2.3-20.4-3.1-32.7-3.9c-16.2-1.1-16.2-2.1-13-20.2C1188.1,1939,1216.5,1935.4,1223,1950z"/>
	
		<linearGradient id="SVGID_26_" gradientUnits="userSpaceOnUse" x1="628.3066" y1="547.8335" x2="1666.9395" y2="1372.6299" gradientTransform="matrix(0.9183 0.3959 0.3959 -0.9183 -2051.9639 1721.4299)">
		<stop  offset="0" style="stop-color:#3F24AC"/>
		<stop  offset="1" style="stop-color:#5D0FF6"/>
	</linearGradient>
	<path class="st37" d="M1002.9,891.1c3.7,30.1-117.5,30.1-138.6,16.5s2.8-54.7,29.8-69.2C921.2,824,994.2,820.1,1002.9,891.1z"/>
	
		<linearGradient id="SVGID_27_" gradientUnits="userSpaceOnUse" x1="3088.4309" y1="779.0912" x2="3108.8157" y2="1030.1478" gradientTransform="matrix(0.9705 0.2411 0.2411 -0.9705 -2067.564 2117.8589)">
		<stop  offset="0" style="stop-color:#F70F47"/>
		<stop  offset="1" style="stop-color:#FFB41D"/>
	</linearGradient>
	<path class="st38" d="M1173.5,1893.4c1.2,5.2,9.9,18.6,23.8,29.4c13.9,10.9,46.2,22.4,26.3,23.9c-19.9,1.6-40.5-7.5-50.9-11.9
		s-20.9-7.3-33.7-10.6c-16.9-4.3-16.7-5.4-9.7-23.9C1138.8,1874.9,1169.5,1876.6,1173.5,1893.4z"/>
	
		<linearGradient id="SVGID_28_" gradientUnits="userSpaceOnUse" x1="647.4419" y1="523.725" x2="1686.0825" y2="1348.5276" gradientTransform="matrix(0.9183 0.3959 0.3959 -0.9183 -2051.9639 1721.4299)">
		<stop  offset="0" style="stop-color:#3F24AC"/>
		<stop  offset="1" style="stop-color:#5D0FF6"/>
	</linearGradient>
	<path class="st39" d="M967.6,868.7c-5.1,21.9,28.5,41.9,27.4,61.4c-0.7,12.1,15.2-20.2,13.3-38.7
		C1006.4,872.9,977.8,824.7,967.6,868.7z"/>
	
		<linearGradient id="SVGID_29_" gradientUnits="userSpaceOnUse" x1="3147.2224" y1="1424.1554" x2="2898.0552" y2="1375.4677" gradientTransform="matrix(-0.9821 -0.1886 0.1886 -0.9821 3672.1509 3477.1055)">
		<stop  offset="0" style="stop-color:#19744F"/>
		<stop  offset="1" style="stop-color:#136C19"/>
	</linearGradient>
	<path class="st40" d="M752.1,1528.9c0,0-66.3-8-7.8-129.7l194.7,37.4c0,0,37,76.7-50.6,118.5L752.1,1528.9z"/>
	
		<linearGradient id="SVGID_30_" gradientUnits="userSpaceOnUse" x1="859.6809" y1="1406.3534" x2="1154.215" y2="1406.3534" gradientTransform="matrix(1 0 0 -1 0 2943.8899)">
		<stop  offset="0" style="stop-color:#19775C"/>
		<stop  offset="1" style="stop-color:#136C19"/>
	</linearGradient>
	<path class="st41" d="M1109.2,1643.1c21.1,6.3,80-32.9,16.1-73.1c-28.4-17.8-179.7-123.5-194.7-133c-15.1-9.5-32.5-5.6-41.5,0.7
		c-45,31.5-39.2,87.4,23.1,119C952.7,1577.3,1065.6,1630,1109.2,1643.1z"/>
	
		<linearGradient id="SVGID_31_" gradientUnits="userSpaceOnUse" x1="1083.8782" y1="1204.174" x2="1175.5" y2="1204.174" gradientTransform="matrix(1 0 0 -1 0 2943.8899)">
		<stop  offset="0" style="stop-color:#19815C"/>
		<stop  offset="1" style="stop-color:#136219"/>
	</linearGradient>
	<path class="st42" d="M1157.9,1623.5c-4.7-62.3-62.7-54.2-71.4-2c-13.8,82.1,30.7,181.3,44.6,278.4c8.2-18,13-22.6,21.5-24.7
		c12.5-3,22.9,6.9,22.9,6.9C1158.9,1753.9,1162.8,1690.1,1157.9,1623.5z"/>
	
		<linearGradient id="SVGID_32_" gradientUnits="userSpaceOnUse" x1="2786.7256" y1="1102.3062" x2="3328.9561" y2="1960.2025" gradientTransform="matrix(-0.9821 -0.1886 0.1886 -0.9821 3672.1509 3477.1055)">
		<stop  offset="0" style="stop-color:#198F5C"/>
		<stop  offset="1" style="stop-color:#136C19"/>
	</linearGradient>
	<path class="st43" d="M1097.7,1659.7c-22.9-64.9-84.7-39.2-76,12.8c12.3,73.6,136.5,253.9,161.4,289.9c3.3,4.7,5.2,2.2,7.3-0.5
		c6.1-7.9,11.7-14.1,15.5-14.6c6.6-0.9,15.9,0.7,15.9,0.7C1194.8,1894.4,1119.8,1722.6,1097.7,1659.7z"/>
	
		<linearGradient id="SVGID_33_" gradientUnits="userSpaceOnUse" x1="2881" y1="1042.7267" x2="3423.2183" y2="1900.6031" gradientTransform="matrix(-0.9821 -0.1886 0.1886 -0.9821 3672.1509 3477.1055)">
		<stop  offset="0" style="stop-color:#198F5C"/>
		<stop  offset="1" style="stop-color:#136C19"/>
	</linearGradient>
	<path class="st44" d="M859.4,1452.6c-74-38.6-144.5-18.8-138.4,37.7c2.6,23.8,20.9,39.8,39.9,50.8s221.9,112.8,257.5,133.6
		c80.4,46.9,84.6-27.5,63.9-44.4C1030.3,1587.7,899.8,1473.6,859.4,1452.6z"/>
	<path class="st33" d="M870.2,918.6c2.9,14.3-0.9,27.2-8.4,28.7s-15.9-8.9-18.8-23.2c-2.9-14.3,0.9-27.2,8.4-28.7
		C858.9,893.9,867.3,904.3,870.2,918.6z"/>
	<g>
		<g>
			
				<linearGradient id="SVGID_34_" gradientUnits="userSpaceOnUse" x1="2839.4026" y1="1281.3805" x2="2839.4026" y2="1641.45" gradientTransform="matrix(-0.9985 -5.560000e-02 5.560000e-02 -0.9985 3819.8057 3103.1074)">
				<stop  offset="0" style="stop-color:#FEF6C1"/>
				<stop  offset="1" style="stop-color:#DEBB52"/>
			</linearGradient>
			<path class="st45" d="M932.4,1460.6l3.4,0.2l60.2-141.1c-3.5-1.5-6-5-5.7-9.1c0.3-5.2,4.7-9.1,9.9-8.9l210.2,11.7
				c3.1,0.2,5.8,1.8,7.4,4.4s1.9,5.8,0.7,8.6l-67.7,158.9c-1.6,3.6-5.2,5.9-9.2,5.7l-210.2-11.7c-5.2-0.3-9.1-4.7-8.8-9.9
				C922.8,1464.3,927.2,1460.3,932.4,1460.6z"/>
			
				<linearGradient id="SVGID_35_" gradientUnits="userSpaceOnUse" x1="3003.8772" y1="1551.1982" x2="3285.6396" y2="1551.1982" gradientTransform="matrix(-0.9985 -5.560000e-02 5.560000e-02 -0.9985 3819.8057 3103.1074)">
				<stop  offset="0" style="stop-color:#FECE5C"/>
				<stop  offset="1" style="stop-color:#DEA340"/>
			</linearGradient>
			<path class="st46" d="M794.2,1471.7l137.1,7.6c4,0.2,7.6-2.1,9.2-5.7l67.7-158.9c2-4.8-0.2-10.3-5-12.3s-10.3,0.2-12.3,5
				l-65.1,152.8l-130.6-7.3c-5.2-0.3-9.6,3.7-9.9,8.9C785.1,1467,789,1471.4,794.2,1471.7z"/>
		</g>
		
			<linearGradient id="SVGID_36_" gradientUnits="userSpaceOnUse" x1="2815.1482" y1="1366.5767" x2="2815.1482" y2="1506.3318" gradientTransform="matrix(-0.9985 -5.560000e-02 5.560000e-02 -0.9985 3819.8057 3103.1074)">
			<stop  offset="0" style="stop-color:#FEF6D4"/>
			<stop  offset="1" style="stop-color:#FEF6D4"/>
		</linearGradient>
		<polygon class="st47" points="1138.1,1402.9 1048.4,1397.9 1052.2,1391.7 1141.9,1396.7 		"/>
		
			<linearGradient id="SVGID_37_" gradientUnits="userSpaceOnUse" x1="2835.9941" y1="1366.7334" x2="2835.9941" y2="1506.3672" gradientTransform="matrix(-0.9985 -5.560000e-02 5.560000e-02 -0.9985 3819.8057 3103.1074)">
			<stop  offset="0" style="stop-color:#FEF6D4"/>
			<stop  offset="1" style="stop-color:#FEF6D4"/>
		</linearGradient>
		<polygon class="st48" points="1102,1412.4 1041.6,1409 1045.5,1402.8 1105.8,1406.1 		"/>
	</g>
</g>
</svg>
