<?xml version="1.0" encoding="utf-8"?>
<!-- Generator: Adobe Illustrator 22.1.0, SVG Export Plug-In . SVG Version: 6.00 Build 0)  -->
<svg version="1.1" xmlns="http://www.w3.org/2000/svg" xmlns:xlink="http://www.w3.org/1999/xlink" x="0px" y="0px"
	 viewBox="0 0 587.2 186.4" style="enable-background:new 0 0 587.2 186.4;" xml:space="preserve">
<style type="text/css">
	.st0{fill:#FFFFFF;}
	.st1{fill:#2B803F;}
</style>
<g id="Layer_1">
	<g id="white">
		<path class="st0" d="M-478.8,78.6c6.3,5.6,15.3,8.6,25.9,8.6h6.9V72h-6.9c-5.8,0-10.7-1.5-14.1-4.3c-3.2-2.7-5.1-6.7-5-10.9
			c-0.1-4.2,1.7-8.3,4.9-11c3.4-2.8,8.3-4.3,14.1-4.3h6.9V26.3h-6.9c-10.7,0-19.6,3-26,8.6c-6.1,5.5-9.4,13-9.4,21.8
			S-485,73.1-478.8,78.6z"/>
		<path class="st0" d="M-422,61.9c0-14.3,5.5-20.2,19-20.2h2.2V26.3h-3c-9,0-14.9,2.5-18.8,8v-8h-14.9v60.8h15.5L-422,61.9z"/>
		<path class="st0" d="M-352.6,60.7v0.1c-2,7.4-7.6,12.2-14.4,12.2c-8.1,0-14.8-7.3-14.8-16.4c0-9.2,6.5-16.4,14.8-16.4
			c3,0.1,5.9,1.1,8.2,2.9l-17.6,11.3l6.3,10.6l31.5-20.3l0.3-0.2l-0.2-0.4c-6.4-12.5-16.2-19.1-28.5-19.1c-8.2,0-16,3.4-21.7,9.3
			c-12,12.5-12,32.3,0,44.8c5.7,5.9,13.5,9.2,21.7,9.1c14.1,0,25.3-8.7,29.8-23.4l0.2-0.5l-15.4-4.1L-352.6,60.7z"/>
		<path class="st0" d="M-301,25.2c-17.4,0-30,13.3-30,31.5c0,8.8,3,16.8,8.5,22.5c5.6,5.7,13.4,8.9,21.4,8.8c4.4,0,8.7-0.8,12.7-2.4
			l0.2-0.1V69.3l-0.8,0.4c-3.2,2.1-7,3.3-10.8,3.4c-9.2,0-15.1-6.6-15.1-16.9c0-9.2,5.9-15.6,14.4-15.6c9,0,14.8,6.4,14.8,16.4v30.2
			h15.5V60.8c0-8.7-0.6-14.9-3.8-20.4C-279.1,31-289.5,25.2-301,25.2z"/>
		<path class="st0" d="M-243.8,10.7h-15.5v50.7c0,8.9,2.2,15.3,6.8,19.5s11.4,6.2,20.9,6.2h4.6V71.9h-7c-7.2,0-9.7-2.3-9.7-8.9V41.6
			h16.7V26.3h-16.8V10.7z"/>
		<path class="st0" d="M-210.4,0.1c-5,0-9.1,4.1-9.1,9.1c0,0.1,0,0.1,0,0.2c0,5.1,4.1,9.2,9.1,9.2c5.1,0,9.3-4.1,9.4-9.2
			C-201,4.2-205.2,0-210.4,0.1z"/>
		<rect x="-218.1" y="26.3" class="st0" width="15.6" height="60.8"/>
		<path class="st0" d="M-164.3,25.2c-8,0-14.7,2.7-19.5,7.8c-5,5.3-7.6,13-7.6,22.2v31.9h15.5V52.8c0-7.4,4.6-12.4,11.6-12.4
			s11.4,5,11.4,12.4v34.4h15.5V55.2c0-8.1-0.8-13.8-5.2-19.4C-147.7,29.1-155.8,25.2-164.3,25.2z"/>
		<path class="st0" d="M-72.2,40.3c-5.2-9.4-15.5-15.1-26.9-15.1c-17.4,0-30,13.3-30,31.5c0,8.8,3,16.8,8.5,22.5
			c5.7,5.7,13.4,8.9,21.5,8.8c4.3,0,8.7-0.8,12.7-2.4l0.2-0.1V69.3l-0.8,0.4c-3.3,2.1-7.1,3.3-11,3.4c-9.2,0-15.1-6.6-15.1-16.9
			c0-9.2,5.9-15.6,14.4-15.6c9,0,14.9,6.4,14.9,16.4v27.6c0,9.7-5.4,14.9-15.8,14.9c-6.7-0.1-13.3-1.1-19.7-3.1l-0.6-0.2v15.5
			l0.4,0.1c6.6,1.7,13.4,2.6,20.2,2.7c9.4,0,17.3-2.8,22.7-8.2s8.3-13.4,8.3-23V60.8C-68.3,52.4-68.9,46.1-72.2,40.3z"/>
		<path class="st0" d="M-623.2,157.8c-0.7,1.9-1.5,4.9-2.4,8.5c-0.6-2.9-1.4-5.7-2.4-8.5l-11.1-33.3l-0.1-0.3h-16.3l19.2,53.1
			c2.2,6.1,5.7,9.1,10.7,9.1c5,0,8.5-3,10.7-9.1l19.2-53.1H-612L-623.2,157.8z"/>
		<path class="st0" d="M-564.4,123.1c-17.4,0-30,13.3-30,31.5c0,8.8,3,16.8,8.5,22.5c5.6,5.7,13.4,8.9,21.4,8.8
			c4.3,0,8.7-0.8,12.7-2.4l0.2-0.1v-16.2l-0.8,0.4c-3.9,2.3-7.3,3.4-10.8,3.4c-9.2,0-15.1-6.6-15.1-16.9c0-9.2,5.9-15.6,14.4-15.6
			c9,0,14.8,6.4,14.8,16.4v30.2h15.5v-26.4c0-8.7-0.6-14.9-3.8-20.4C-542.5,128.9-552.9,123.1-564.4,123.1z"/>
		<rect x="-522.5" y="98" class="st0" width="15.6" height="87.1"/>
		<path class="st0" d="M-457.3,158.5c0,7.5-4.6,12.6-11.4,12.6s-11.6-5.2-11.6-12.6v-34.2h-15.5v31.9c0,8.1,0.8,13.8,5.1,19.4
			c5.3,6.8,13.4,10.7,21.9,10.7c7.9,0,14.6-2.7,19.4-7.8c4.9-5.3,7.6-13,7.6-22.2v-31.9h-15.5V158.5z"/>
		<path class="st0" d="M-388.5,158.6v0.1c-2,7.4-7.6,12.2-14.4,12.2c-8.1,0-14.8-7.3-14.8-16.4s6.5-16.4,14.8-16.4
			c3,0.1,5.9,1.1,8.2,2.9l-17.2,11l-0.4,0.3l6.3,10.6l31.6-20.3l0.3-0.2l-0.2-0.4c-6.4-12.5-16.2-19.1-28.5-19.1
			c-8.2,0-16,3.4-21.6,9.3c-12,12.5-12,32.3,0,44.8c5.7,5.9,13.5,9.2,21.7,9.1c14.1,0,25.3-8.7,29.8-23.4l0.2-0.5l-15.5-4
			L-388.5,158.6z"/>
		<path class="st0" d="M-355.3,165.6c-5.7-0.1-10.3,4.5-10.4,10.1c0,0.1,0,0.1,0,0.2c0,5.7,4.6,10.4,10.4,10.4s10.4-4.6,10.4-10.4
			c0.1-5.6-4.5-10.3-10.1-10.4C-355.1,165.6-355.2,165.6-355.3,165.6z"/>
		<rect x="-650.4" y="52.1" class="st0" width="123.6" height="9"/>
	</g>
</g>
<g id="Layer_2">
	<g id="green">
		<path class="st1" d="M176.6,78.5c6.3,5.6,15.3,8.6,25.9,8.6h6.9V71.9h-6.9c-5.8,0-10.7-1.5-14.1-4.4c-6-5.3-6.7-14.4-1.4-20.5
			c0.4-0.5,0.9-1,1.4-1.4c3.4-2.8,8.3-4.3,14.1-4.3h6.9V26.2h-6.9c-10.7,0-19.6,3-26,8.6c-6.1,5.5-9.4,13-9.4,21.8
			S170.5,73,176.6,78.5z"/>
		<path class="st1" d="M233.5,61.8c0-14.3,5.5-20.2,19-20.2h2.2V26.2h-3c-9,0-14.9,2.5-18.8,7.9v-7.9H218v60.8h15.5L233.5,61.8z"/>
		<path class="st1" d="M302.8,60.6v0.1c-2,7.4-7.6,12.2-14.4,12.2c-8.1,0-14.8-7.3-14.8-16.4s6.5-16.4,14.8-16.4
			c3,0.1,5.9,1.1,8.2,2.9L279,54.4l6.3,10.6l31.5-20.3l0.3-0.2l-0.2-0.4C310.5,31.6,300.7,25,288.4,25c-8.2,0-16,3.3-21.7,9.2
			c-12,12.5-12,32.3,0,44.8c5.6,5.9,13.5,9.3,21.7,9.2c14.1,0,25.3-8.7,29.8-23.4l0.2-0.5l-15.4-4.1L302.8,60.6z"/>
		<path class="st1" d="M354.5,25.1c-17.4,0-30,13.2-30,31.5c0,8.8,3,16.8,8.5,22.5c5.6,5.7,13.4,8.9,21.4,8.8
			c4.4,0,8.7-0.8,12.7-2.4l0.2-0.1V69.2l-0.8,0.5c-3.2,2.1-7,3.3-10.8,3.4c-9.2,0-15.1-6.6-15.1-16.9c0-9.2,5.9-15.6,14.4-15.6
			c9,0,14.8,6.4,14.8,16.4v30.2h15.5V60.7c0-8.7-0.6-14.9-3.8-20.4C376.3,30.9,366,25.1,354.5,25.1z"/>
		<path class="st1" d="M411.6,10.6h-15.5v50.7c0,8.9,2.2,15.3,6.8,19.5s11.4,6.2,20.9,6.2h4.6V71.8h-7c-7.2,0-9.7-2.3-9.7-8.9V41.5
			h16.7V26.2h-16.8V10.6z"/>
		<path class="st1" d="M445.1,0c-5,0-9.1,4-9.1,9.1c0,0.1,0,0.1,0,0.2c0,5.1,4.1,9.2,9.1,9.2c5.1,0,9.2-4.1,9.2-9.2
			C454.4,4.1,450.2,0,445.1,0L445.1,0z"/>
		<rect x="437.3" y="26.2" class="st1" width="15.6" height="60.8"/>
		<path class="st1" d="M491.1,25.1c-8,0-14.7,2.7-19.5,7.8c-5,5.3-7.6,13-7.6,22.2v31.9h15.5V52.7c0-7.4,4.6-12.4,11.6-12.4
			s11.4,5,11.4,12.4v34.4h15.5V55.2c0-8.1-0.8-13.8-5.2-19.4C507.7,29,499.7,25.1,491.1,25.1z"/>
		<path class="st1" d="M583.3,40.3c-5.2-9.4-15.5-15.1-26.9-15.1c-17.4,0-30,13.2-30,31.5c0,8.9,3,16.9,8.5,22.5
			c5.6,5.7,13.4,8.9,21.5,8.8c4.3,0,8.7-0.8,12.7-2.4l0.2-0.1V69.2l-0.8,0.5c-3.3,2.1-7.1,3.3-11,3.4c-9.2,0-15.1-6.6-15.1-16.9
			c0-9.2,5.9-15.6,14.4-15.6c9,0,14.9,6.4,14.9,16.4v27.6c0,9.7-5.4,14.9-15.8,14.9c-6.7-0.1-13.3-1.1-19.7-3l-0.6-0.2v15.5l0.4,0.1
			c6.6,1.7,13.4,2.6,20.2,2.7c9.4,0,17.3-2.9,22.7-8.2s8.3-13.4,8.3-23V60.7C587.2,52.4,586.5,46,583.3,40.3z"/>
		<path class="st1" d="M32.2,157.8c-0.7,1.9-1.5,4.9-2.4,8.5c-0.6-2.9-1.4-5.7-2.4-8.5l-11.1-33.3l-0.1-0.2H0l19.2,53.1
			c2.2,6.1,5.7,9.1,10.7,9.1s8.5-3,10.7-9.1l19.2-53.1H43.5L32.2,157.8z"/>
		<path class="st1" d="M91.1,123.1c-17.4,0-30,13.3-30,31.5c0,8.9,3,16.9,8.5,22.5c5.6,5.7,13.4,8.9,21.4,8.8
			c4.3,0,8.7-0.8,12.7-2.4l0.2-0.1v-16.2l-0.8,0.5c-3.2,2.1-7,3.3-10.8,3.4c-9.2,0-15.1-6.6-15.1-16.9c0-9.2,5.9-15.6,14.4-15.6
			c9,0,14.8,6.4,14.8,16.4V185h15.5v-26.3c0-8.7-0.6-14.9-3.8-20.4C112.9,128.9,102.6,123.1,91.1,123.1z"/>
		<rect x="132.9" y="98" class="st1" width="15.6" height="87.1"/>
		<path class="st1" d="M198.2,158.4c0,7.5-4.6,12.5-11.4,12.5s-11.6-5.2-11.6-12.5v-34.2h-15.5v31.9c0,8.1,0.8,13.9,5.1,19.4
			c5.3,6.8,13.4,10.7,21.9,10.6c7.9,0,14.6-2.7,19.4-7.8c4.9-5.3,7.6-13,7.6-22.2v-31.9h-15.5V158.4z"/>
		<path class="st1" d="M266.9,158.5v0.1c-2,7.4-7.6,12.2-14.4,12.2c-8.1,0-14.8-7.3-14.8-16.4c0-9.2,6.5-16.4,14.8-16.4
			c3,0.1,5.9,1.1,8.2,2.9l-17.2,11.1l-0.4,0.3l6.3,10.6l31.6-20.3l0.3-0.2l-0.2-0.4c-6.4-12.5-16.2-19.1-28.5-19.1
			c-8.2,0-16,3.4-21.7,9.3c-12,12.5-12,32.3,0,44.8c5.7,5.9,13.5,9.2,21.7,9.1c14.1,0,25.3-8.7,29.8-23.4l0.2-0.5l-15.4-4.1
			L266.9,158.5z"/>
		<path class="st1" d="M300.2,165.6c-5.7-0.1-10.3,4.5-10.4,10.1c0,0.1,0,0.1,0,0.2c0,5.7,4.6,10.4,10.4,10.4s10.4-4.6,10.4-10.4
			c0.1-5.7-4.5-10.3-10.1-10.4C300.4,165.5,300.3,165.5,300.2,165.6z"/>
		<rect x="5" y="52.1" class="st1" width="123.6" height="9"/>
	</g>
</g>
</svg>
