<?xml version="1.0" encoding="UTF-8"?>
<svg width="303px" height="108px" viewBox="0 0 303 108" version="1.1" xmlns="http://www.w3.org/2000/svg" xmlns:xlink="http://www.w3.org/1999/xlink">
    <!-- Generator: Sketch 52.5 (67469) - http://www.bohemiancoding.com/sketch -->
    <title>sombra resume logo</title>
    <desc>Created with Sketch.</desc>
    <g id="Pages" stroke="none" stroke-width="1" fill="none" fill-rule="evenodd">
        <g id="Logo" transform="translate(-66.000000, -78.000000)">
            <g id="sombra-resume-logo" transform="translate(66.000000, 78.000000)">
                <g id="Group">
                    <g id="Logo">
                        <path d="M81.3,27 C76.5,22.2 70.5,19.8 63.6,19.8 C56.7,19.8 50.7,22.2 45.9,27 C41.1,31.8 38.7,37.8 38.7,44.7 C38.7,51.6 41.1,57.6 45.9,62.4 C50.7,67.2 56.7,69.6 63.6,69.6 C70.5,69.6 76.5,67.2 81.3,62.4 C86.1,57.6 88.5,51.6 88.5,44.7 C88.5,37.8 86.1,31.8 81.3,27 Z M72.6,53.7 C70.2,56.1 67.2,57.3 63.6,57.3 C60,57.3 57.3,56.1 54.9,53.7 C52.5,51.3 51.3,48.3 51.3,44.7 C51.3,41.1 52.5,38.1 54.9,35.7 C57.3,33.3 60.3,32.1 63.9,32.1 C67.5,32.1 70.2,33.3 72.6,35.7 C75,38.1 76.2,41.1 76.2,44.7 C76.2,48.3 75,51.3 72.6,53.7 Z" id="Shape" fill="#2A803F" fill-rule="nonzero"></path>
                        <path d="M18.6,40.2 C16.5,39.3 15.3,38.7 14.7,38.4 C13.5,37.5 12.6,36.9 12.6,36 C12.6,35.4 12.9,34.8 13.2,34.5 C13.8,34.2 14.4,34.2 15,34.2 L16.2,34.2 L30.6,34.2 L30.6,22.2 L15.6,22.2 C10.5,22.2 6.6,23.7 3.9,26.4 C1.5,28.8 0.6,31.8 0.6,35.7 C0.6,38.4 1.2,40.5 2.7,42.3 C3.9,44.1 7.2,46.2 12.3,48.3 C14.7,49.5 15.9,50.1 16.2,50.1 C18.9,51.6 20.1,53.1 20.1,54.6 C20.1,55.8 19.5,56.7 18.3,57 C17.7,57.3 16.8,57.3 15.3,57.3 L0,57.3 L0,69.3 L14.4,69.3 C21.9,69.3 27,67.5 30.3,63.6 C32.1,61.5 33,58.5 33,55.2 C33,51.3 31.5,48 28.5,45.6 C27,44.4 23.7,42.6 18.6,40.2 Z" id="Path" fill="#2A803F"></path>
                        <path d="M159.9,69.6 L147.3,69.6 L147.3,40.8 C147.3,38.1 146.4,36 144.9,34.5 C143.7,33.3 142.2,32.7 140.4,32.7 C138.6,32.7 137.4,33.3 136.2,34.2 C134.4,35.7 133.5,38.1 133.5,41.7 L133.5,69.3 L120.9,69.3 L120.9,42 C120.9,38.4 120,36 118.2,34.5 C117,33.6 115.5,33 114,33 C112.2,33 110.7,33.6 109.5,34.8 C107.7,36.3 107.1,38.4 107.1,41.1 L107.1,69.9 L94.5,69.9 L94.5,41.1 C94.5,37.2 94.8,34.2 95.7,32.1 C96.9,28.5 99.6,25.8 103.2,23.7 C106.2,22.2 109.2,21.3 112.5,21.3 C115.2,21.3 117.9,21.9 120.6,23.1 C123,24.3 125.4,26.1 127.5,28.8 C129,25.8 131.4,24 133.8,22.8 C136.5,21.6 139.2,21 141.9,21 C145.2,21 148.5,21.9 151.2,23.4 C155.1,25.5 157.5,28.2 158.7,31.8 C159.6,33.9 159.9,36.9 159.9,41.1 L159.9,69.6 Z" id="Path" fill="#2A803F"></path>
                        <path d="M214.8,44.7 C214.8,51.6 212.4,57.6 207.6,62.4 C202.8,67.2 196.8,69.6 189.9,69.6 C185.7,69.6 181.5,68.4 177.6,66.3 C172.8,63.6 169.5,59.7 167.4,54.9 C165.9,51.3 165.3,46.5 165.3,41.1 L165.3,0 L177.9,0 L177.9,42.6 C177.9,48 179.4,52.2 182.1,54.6 C184.2,56.4 186.9,57.3 189.9,57.3 C193.5,57.3 196.5,56.1 198.9,53.7 C201.3,51.3 202.5,48.3 202.5,44.7 C202.5,40.8 201,37.8 198.3,35.4 C195.6,33 192.3,31.8 188.7,31.8 C186.6,31.8 184.5,32.4 181.8,33.6 L181.8,21 C184.2,20.1 186.9,19.5 189.9,19.5 C196.8,19.5 202.8,21.9 207.6,26.7 C212.4,31.8 214.8,37.8 214.8,44.7 Z" id="Path" fill="#2A803F"></path>
                        <path d="M246.6,34.8 L244.8,34.8 C240,34.8 236.7,36.6 234.9,39.9 C233.7,42 233.1,45 233.1,48.9 L233.1,69.9 L220.5,69.9 L220.5,22.2 L231.9,22.2 L231.9,31.2 C233.1,27.3 235.2,24.6 238.5,23.1 C240.3,22.2 242.7,21.6 245.1,21.6 L246.6,21.6 L246.6,34.8 Z" id="Path" fill="#2A803F"></path>
                        <path d="M302.1,68.7 L289.5,68.7 L289.5,48.6 C289.5,44.1 288.9,40.5 287.4,37.8 C285.3,33.9 282,31.8 277.2,31.8 C273.6,31.8 270.6,33 268.2,35.4 C265.8,37.8 264.6,41.1 264.6,45 C264.6,48.3 265.5,51 267.3,53.1 C269.7,56.1 273,57.3 277.8,57.3 C279.9,57.3 281.4,57 282.6,56.7 C283.8,56.4 284.7,55.8 285.3,55.2 L285.3,67.5 C283.8,68.1 282.6,68.4 281.1,69 C279.6,69.3 278.1,69.6 276.3,69.6 C270,69.6 264.3,67.5 259.8,63.3 C254.7,58.8 252.3,52.8 252.3,45.6 C252.3,39 254.4,33 258.9,28.2 C263.7,22.8 270,19.8 277.8,19.8 C283.8,19.8 289.2,21.6 293.4,24.9 C299.4,29.7 302.4,37.2 302.4,47.7 L302.4,68.7 L302.1,68.7 Z" id="Path" fill="#2A803F"></path>
                        <path d="M11.749,82.941 C12.3370029,82.941 12.7616654,82.9573332 13.023,82.99 L13.023,85.832 C12.3043297,85.7666663 11.7980015,85.734 11.504,85.734 C9.08665458,85.734 7.15934052,86.6241578 5.722,88.4045 C4.28465948,90.1848422 3.566,92.4959858 3.566,95.338 L3.566,107 L0.969,107 L0.969,83.186 L3.566,83.186 L3.566,87.743 L3.664,87.743 C5.46067565,84.5416507 8.1556487,82.941 11.749,82.941 Z M37.229,94.456 L37.229,95.534 L37.18,95.73 L17.972,95.73 C18.1026673,98.4413469 19.0009917,100.629992 20.667,102.296 C22.3330083,103.962008 24.4073209,104.795 26.89,104.795 C29.960682,104.795 32.459657,103.602679 34.387,101.218 L36.249,102.786 C33.9949887,105.758682 30.8916864,107.245 26.939,107.245 C23.6069833,107.245 20.838511,106.109845 18.6335,103.8395 C16.428489,101.569155 15.326,98.6536845 15.326,95.093 C15.326,91.5649824 16.3958226,88.6658447 18.5355,86.3955 C20.6751774,84.1251553 23.3293175,82.99 26.498,82.99 C29.6993493,82.99 32.2881568,84.0679892 34.2645,86.224 C36.2408432,88.3800108 37.229,91.1239833 37.229,94.456 Z M32.084,87.596 C30.6793263,86.1586595 28.8826776,85.44 26.694,85.44 C24.5053224,85.44 22.6106747,86.1586595 21.01,87.596 C19.4093253,89.0333405 18.4456683,90.9443214 18.119,93.329 L34.632,93.329 C34.3706654,90.9443214 33.5213405,89.0333405 32.084,87.596 Z M50.459,107.245 C46.8983155,107.245 43.8440127,106.118011 41.296,103.864 L42.766,101.855 C44.8240103,103.81501 47.388318,104.795 50.459,104.795 C52.190342,104.795 53.5459951,104.403004 54.526,103.619 C55.5060049,102.834996 55.996,101.838673 55.996,100.63 C55.996,99.29066 55.1140088,98.2126708 53.35,97.396 C52.8273307,97.1673322 51.5206771,96.6936703 49.43,95.975 C47.1106551,95.1909961 45.3630059,94.3090049 44.187,93.329 C43.0109941,92.3489951 42.423,90.9280093 42.423,89.066 C42.423,87.3019912 43.1171597,85.8483391 44.5055,84.705 C45.8938403,83.561661 47.6659892,82.99 49.822,82.99 C52.8600152,82.99 55.5059887,83.953657 57.76,85.881 L56.29,87.89 C54.362657,86.2239917 52.1250127,85.391 49.577,85.391 C48.3029936,85.391 47.2250044,85.7176634 46.343,86.371 C45.4609956,87.0243366 45.02,87.922661 45.02,89.066 C45.02,89.6866698 45.1343322,90.2174978 45.363,90.6585 C45.5916678,91.0995022 46.0163302,91.4996649 46.637,91.859 C47.2576698,92.2183351 47.763998,92.4796659 48.156,92.643 C48.548002,92.8063342 49.2503283,93.0676649 50.263,93.427 C53.3663489,94.5376722 55.3263293,95.3543307 56.143,95.877 C57.8416752,96.9876722 58.6746668,98.6209892 58.642,100.777 C58.642,102.606342 57.9233405,104.14166 56.486,105.383 C55.0486595,106.62434 53.0396796,107.245 50.459,107.245 Z M81.231,83.186 L83.828,83.186 L83.828,107 L81.231,107 L81.231,102.59 L81.133,102.59 C80.1529951,104.060007 78.9361739,105.203329 77.4825,106.02 C76.0288261,106.836671 74.5016747,107.245 72.901,107.245 C70.1569863,107.245 68.017341,106.412008 66.482,104.746 C64.946659,103.079992 64.179,100.646349 64.179,97.445 L64.179,83.186 L66.776,83.186 L66.776,96.661 C66.776,99.5683479 67.3231612,101.650827 68.4175,102.9085 C69.5118388,104.166173 71.1206561,104.795 73.244,104.795 C75.4326776,104.795 77.3109922,103.880342 78.879,102.051 C80.4470078,100.221658 81.231,97.8533479 81.231,94.946 L81.231,83.186 Z M118.961,82.941 C124.31836,82.941 126.997,86.3219662 126.997,93.084 L126.997,107.049 L124.4,107.049 L124.4,93.917 C124.4,90.846318 123.893672,88.6576732 122.881,87.351 C121.868328,86.0443268 120.349343,85.391 118.324,85.391 C116.167989,85.391 114.338674,86.2974909 112.836,88.1105 C111.333326,89.9235091 110.582,92.2836521 110.582,95.191 L110.582,107.049 L107.985,107.049 L107.985,93.721 C107.985,88.1676389 105.992353,85.391 102.007,85.391 C99.7529887,85.391 97.8746742,86.2893244 96.372,88.086 C94.8693258,89.8826757 94.118,92.2509853 94.118,95.191 L94.118,107 L91.521,107 L91.521,83.186 L94.118,83.186 L94.118,87.743 L94.216,87.743 C95.1960049,86.2403258 96.4291592,85.0643376 97.9155,84.215 C99.4018408,83.3656624 100.977992,82.941 102.644,82.941 C106.335352,82.941 108.752661,84.672316 109.896,88.135 L110.043,88.135 C110.990338,86.5016585 112.239826,85.2276712 113.7915,84.313 C115.343174,83.3983288 117.066324,82.941 118.961,82.941 Z M154.731,94.456 L154.731,95.534 L154.682,95.73 L135.474,95.73 C135.604667,98.4413469 136.502992,100.629992 138.169,102.296 C139.835008,103.962008 141.909321,104.795 144.392,104.795 C147.462682,104.795 149.961657,103.602679 151.889,101.218 L153.751,102.786 C151.496989,105.758682 148.393686,107.245 144.441,107.245 C141.108983,107.245 138.340511,106.109845 136.1355,103.8395 C133.930489,101.569155 132.828,98.6536845 132.828,95.093 C132.828,91.5649824 133.897823,88.6658447 136.0375,86.3955 C138.177177,84.1251553 140.831317,82.99 144,82.99 C147.201349,82.99 149.790157,84.0679892 151.7665,86.224 C153.742843,88.3800108 154.731,91.1239833 154.731,94.456 Z M149.586,87.596 C148.181326,86.1586595 146.384678,85.44 144.196,85.44 C142.007322,85.44 140.112675,86.1586595 138.512,87.596 C136.911325,89.0333405 135.947668,90.9443214 135.621,93.329 L152.134,93.329 C151.872665,90.9443214 151.023341,89.0333405 149.586,87.596 Z" id="resume" fill="#111111"></path>
                    </g>
                </g>
            </g>
        </g>
    </g>
</svg>