<svg xmlns="http://www.w3.org/2000/svg" viewBox="0 0 285.47 65.85"><defs><style>.cls-1{fill:#28803f;}</style></defs><title>Asset 54</title><g id="Layer_2" data-name="Layer 2"><g id="Layer_1-2" data-name="Layer 1"><path class="cls-1" d="M17.66,38.2c-2-.93-3.23-1.51-3.6-1.76-1.24-.74-1.85-1.54-1.85-2.41a1.36,1.36,0,0,1,.64-1.34,4.1,4.1,0,0,1,1.76-.32H29.32V20.9H14.7q-7.3,0-11.09,3.89A12.15,12.15,0,0,0,.37,33.66,10.29,10.29,0,0,0,2.27,40q1.89,2.53,9,5.78c2.22,1,3.42,1.63,3.61,1.76q3.8,2,3.79,4.34A2.17,2.17,0,0,1,17,54.1a10.52,10.52,0,0,1-3,.28H0V65.85H13.59q10.55,0,15-5.27a12,12,0,0,0,2.68-8A11.33,11.33,0,0,0,27,43.37,54.77,54.77,0,0,0,17.66,38.2Z"/><path class="cls-1" d="M76.94,25.51a22.79,22.79,0,0,0-16.73-6.83A23.36,23.36,0,0,0,36.62,42.22,23.34,23.34,0,0,0,60.21,65.75,23.34,23.34,0,0,0,83.79,42.22,22.69,22.69,0,0,0,76.94,25.51ZM68.58,50.83a11.76,11.76,0,0,1-16.7,0,11.81,11.81,0,0,1-3.42-8.57,11.82,11.82,0,0,1,3.38-8.62,11.76,11.76,0,0,1,16.69,0A11.79,11.79,0,0,1,72,42.22,11.86,11.86,0,0,1,68.58,50.83Z"/><path class="cls-1" d="M151.11,65.85H139.28V38.75A7.48,7.48,0,0,0,137,32.83a6.61,6.61,0,0,0-8.33-.18c-1.72,1.42-2.59,3.79-2.59,7.12V65.85H114.21V39.77q0-4.91-2.58-7a6.13,6.13,0,0,0-4.07-1.48,6,6,0,0,0-4.17,1.57,7.5,7.5,0,0,0-2.4,5.92v27.1H89.15V38.57A26.26,26.26,0,0,1,90.26,30,15,15,0,0,1,97.38,22a17.9,17.9,0,0,1,8.7-2.22,18.54,18.54,0,0,1,7.53,1.57,17.16,17.16,0,0,1,6.52,5.37,16.94,16.94,0,0,1,6.43-5.27,18.22,18.22,0,0,1,7.63-1.67A17.18,17.18,0,0,1,142.88,22,14.57,14.57,0,0,1,150,29.87a26.61,26.61,0,0,1,1.11,8.7Z"/><path class="cls-1" d="M203.18,42.22A23.42,23.42,0,0,1,168,62.61a21.23,21.23,0,0,1-9.53-10.89,36.34,36.34,0,0,1-2-13.12V0h11.84V40.25q0,7.76,4,11.36a10.49,10.49,0,0,0,7.31,2.68A11.21,11.21,0,0,0,188,50.83a11.82,11.82,0,0,0,3.37-8.61,11,11,0,0,0-3.83-8.8,13.48,13.48,0,0,0-9-3.27A15.67,15.67,0,0,0,172,31.81V20a22.08,22.08,0,0,1,7.58-1.3,23.34,23.34,0,0,1,23.58,23.54Z"/><path class="cls-1" d="M233.13,32.83h-1.67q-6.75,0-9.34,4.72-1.67,3-1.66,8.51V65.85H208.62V20.9h10.64v8.51a11.64,11.64,0,0,1,6.1-7.77,14.36,14.36,0,0,1,6.29-1.29h1.48Z"/><path class="cls-1" d="M285.47,64.83H273.64v-19q0-6.46-1.85-10.08-2.78-5.55-9.71-5.55a11.27,11.27,0,0,0-8.42,3.41,12.24,12.24,0,0,0-3.33,8.94,12,12,0,0,0,2.59,7.74q3.24,4.05,9.89,4.05a14.6,14.6,0,0,0,4.44-.53,7.74,7.74,0,0,0,2.69-1.51V64.1a23.36,23.36,0,0,1-4,1.29,21.56,21.56,0,0,1-4.57.46,22.55,22.55,0,0,1-15.63-5.91q-7.22-6.46-7.22-16.8a24.36,24.36,0,0,1,6.11-16.52,22.46,22.46,0,0,1,17.75-7.85,22.84,22.84,0,0,1,14.71,4.81q8.42,6.75,8.41,21.46Z"/></g></g></svg>